PathFileType	3	(X/Y/Z)	F:\ViconData\AntennenMessung\Messung1\Session1\ID15.trc
DataRate	CameraRate	NumFrames	NumMarkers	Units	OrigDataRate	OrigDataStartFrame	OrigNumFrames
120.0	120.0	6	70	mm	120.0	1175	1342	
Frame#	Time	Ashort			Along			Atop			A4			Bshort			Blong			Btop			B4			Cshort			Clong			Ctop			C4			Dshort			Dlong			Dtop			D4			Eshort			Elong			Etop			E4			Fshort			Flong			Ftop			F4			Gshort			Glong			Gtop			G4			Hshort			Hlong			Htop			H4			I1			I2			I3			I4			I5			WandAshort			WandAlong			WandAtop			WandA4			WandA15			WandBshort			WandB4			WandB5			WandBtop			WandBlong			WandCshort			WandClong			WandCtop			WandC4			WandC5			Acenter			Aantenna			Bcenter			Bantenna			Ccenter			Cantenna			Dcenter			Dantenna			Ecenter			Eantenna			Fcenter			Fantenna			Gcenter			Gantenna			Hcenter			Hantenna			Icenter			Iantenna			
		X1	Y1	Z1	X2	Y2	Z2	X3	Y3	Z3	X4	Y4	Z4	X5	Y5	Z5	X6	Y6	Z6	X7	Y7	Z7	X8	Y8	Z8	X9	Y9	Z9	X10	Y10	Z10	X11	Y11	Z11	X12	Y12	Z12	X13	Y13	Z13	X14	Y14	Z14	X15	Y15	Z15	X16	Y16	Z16	X17	Y17	Z17	X18	Y18	Z18	X19	Y19	Z19	X20	Y20	Z20	X21	Y21	Z21	X22	Y22	Z22	X23	Y23	Z23	X24	Y24	Z24	X25	Y25	Z25	X26	Y26	Z26	X27	Y27	Z27	X28	Y28	Z28	X29	Y29	Z29	X30	Y30	Z30	X31	Y31	Z31	X32	Y32	Z32	X33	Y33	Z33	X34	Y34	Z34	X35	Y35	Z35	X36	Y36	Z36	X37	Y37	Z37	X38	Y38	Z38	X39	Y39	Z39	X40	Y40	Z40	X41	Y41	Z41	X42	Y42	Z42	X43	Y43	Z43	X44	Y44	Z44	X45	Y45	Z45	X46	Y46	Z46	X47	Y47	Z47	X48	Y48	Z48	X49	Y49	Z49	X50	Y50	Z50	X51	Y51	Z51	X52	Y52	Z52	X53	Y53	Z53	X54	Y54	Z54	X55	Y55	Z55	X56	Y56	Z56	X57	Y57	Z57	X58	Y58	Z58	X59	Y59	Z59	X60	Y60	Z60	X61	Y61	Z61	X62	Y62	Z62	X63	Y63	Z63	X64	Y64	Z64	X65	Y65	Z65	X66	Y66	Z66	X67	Y67	Z67	X68	Y68	Z68	X69	Y69	Z69	X70	Y70	Z70	
1175	9.7833333	-1038.2031	214.51614	-1644.0657	-1109.4078	204.10367	-1599.3195	-1063.6938	173.11211	-1625.8638	-1054.1583	262.23819	-1634.8528	-1352.7482	235.12753	1003.8239	-1281.3684	227.31564	1052.4395	-1322.699	193.89058	1020.965	-1284.4116	287.90637	1052.8459	814.05054	187.5388	1209.4562	892.32495	178.55136	1179.2765	844.52051	145.51392	1198.3704	861.19775	292.2738	1167.364	1115.8254	209.96806	-1401.7224	1056.2659	194.12231	-1460.1887	1095.1964	162.52779	-1423.7727	1069.7468	238.82069	-1425.7631	-1204.6221	1686.04	-1563.0703	-1129.1268	1688.3105	-1605.933	-1173.1047	1724.3572	-1581.9631	-1134.0247	1581.0414	-1603.814	-1239.5314	1699.0844	1119.4708	-1309.3124	1698.8527	1071.968	-1270.4158	1736.3477	1096.9122	-1244.9611	1593.5754	1106.6257	988.88098	1664.2311	1162.2305	957.36426	1700.4778	1183.7888	922.09521	1662.2819	1214.9504	939.80475	1659.4537	1159.9365	999.13812	1668.4799	-1579.3778	1058.9297	1670.1742	-1518.5782	1025.0231	1708.058	-1551.0504	1059.3148	1672.1595	-1585.3345	-201.69829	1171.5953	-147.19067	-196.99542	1170.8212	-231.21523	-199.08675	1208.4969	-184.92505	-166.64293	1171.0439	-182.55415	-247.59579	1172.5702	-186.62994																																														-1068.5526	210.07805	-1624.9934	-1073.6335	248.73494	-1624.0833	-1321.4192	231.69887	1025.1614	-1320.108	270.4389	1029.4613	848.10803	183.62831	1196.3248	851.75769	222.40137	1194.244	1088.8416	202.78906	-1428.2108	1082.7969	241.0858	-1432.4325	-1171.8268	1687.0262	-1581.6897	-1170.4926	1648.05	-1581.4043	-1271.0446	1698.9796	1098.0184	-1271.7006	1660.0022	1099.1721	952.82898	1705.6936	1186.8909	972.76038	1733.8469	1168.6937	1026.5667	1669.2571	-1551.4868	1028.1167	1630.2903	-1551.9253	-199.60385	1171.2506	-184.61079	-200.14528	1132.2556	-184.28183
1176	9.7916667	-1038.188	214.48648	-1644.0065	-1109.3912	204.20532	-1599.3728	-1063.6416	172.92682	-1625.801	-1054.127	262.23877	-1634.8448	-1352.7469	235.17001	1003.6621	-1281.3845	227.24727	1052.4083	-1322.6888	193.91774	1020.968	-1284.4756	287.90408	1052.8574	814.06287	187.55457	1209.4674	892.21332	178.45285	1179.2826	844.49762	145.56355	1198.2882	861.13422	292.29483	1167.709	1115.782	209.68446	-1401.5731	1056.2869	194.04031	-1460.1616	1095.2429	162.56563	-1423.8158	1069.7556	238.82472	-1425.7482	-1204.6182	1686.0449	-1563.0764	-1129.1061	1688.3395	-1605.974	-1173.1105	1724.3687	-1581.957	-1134.0334	1581.0532	-1603.8236	-1239.5576	1699.1177	1119.4897	-1309.3167	1698.8477	1071.9624	-1270.3914	1736.3003	1096.8929	-1244.9902	1593.5614	1106.5953	988.96948	1664.306	1162.2568	957.37854	1700.5162	1183.792	921.98578	1662.3077	1214.9294	939.80786	1659.453	1159.9182	999.1474	1668.4373	-1579.3296	1058.9226	1670.1731	-1518.5712	1025.0149	1708.0481	-1551.0422	1059.3083	1672.1606	-1585.3398	-201.68019	1171.599	-147.19083	-196.99284	1170.8228	-231.22411	-199.14948	1208.5886	-184.94839	-166.62064	1171.0511	-182.55751	-247.61307	1172.5701	-186.64368																																														-1068.5083	210.10847	-1625.0002	-1073.5686	248.76981	-1624.1675	-1321.3325	231.68234	1025.1206	-1319.9414	270.42401	1029.3806	848.15723	183.5838	1196.2987	851.88885	222.35184	1194.2704	1088.8887	202.61288	-1428.0565	1082.8102	240.9221	-1432.1132	-1171.8315	1687.041	-1581.702	-1170.4958	1648.0648	-1581.4359	-1271.0322	1698.9957	1098.0457	-1271.702	1660.0201	1099.2502	952.76337	1705.8062	1186.9381	972.70551	1733.9907	1168.8013	1026.5663	1669.2333	-1551.4597	1028.1239	1630.2668	-1551.8787	-199.59195	1171.2531	-184.62814	-200.05411	1132.2573	-184.29364
1177	9.8	-1038.1917	214.5127	-1644.0591	-1109.4061	204.17377	-1599.3827	-1063.6127	172.94032	-1625.8268	-1054.1305	262.23572	-1634.8586	-1352.7184	235.10985	1003.7374	-1281.3926	227.34451	1052.4061	-1322.7534	193.80167	1021.0222	-1284.8151	287.75015	1053.0282	814.12164	187.46907	1209.4625	892.28101	178.5835	1179.1963	844.4704	145.53622	1198.3214	861.12158	292.41962	1167.5128	1115.7654	209.68626	-1401.5896	1056.261	194.09515	-1460.1958	1095.256	162.60594	-1423.7937	1069.7931	238.88568	-1425.798	-1204.5944	1686.0432	-1563.0468	-1129.1261	1688.3097	-1605.9679	-1173.1139	1724.3612	-1581.9596	-1134.0416	1581.0437	-1603.8219	-1239.5811	1699.139	1119.4907	-1309.2847	1698.7952	1071.9465	-1270.4423	1736.3719	1096.9213	-1245.6281	1592.8727	1110.6953	988.92419	1664.2653	1162.2446	957.38324	1700.462	1183.8053	922.0592	1662.3125	1214.9702	939.85248	1659.4486	1159.9846	999.13611	1668.4651	-1579.3737	1058.9368	1670.1742	-1518.5726	1025.0121	1708.0413	-1551.0369	1059.3065	1672.1522	-1585.3356	-201.69209	1171.5996	-147.20224	-196.98975	1170.8199	-231.21791	-199.07254	1208.4865	-184.93977	-166.6196	1171.0579	-182.58022	-247.60361	1172.5594	-186.63765																																														-1068.5134	210.11058	-1625.0366	-1073.6101	248.76738	-1624.2148	-1321.4099	231.70125	1025.1003	-1320.0364	270.45337	1029.2703	848.02893	183.6143	1196.3323	851.65302	222.39267	1194.3065	1088.9274	202.6543	-1428.0222	1082.873	240.96849	-1432.0679	-1171.8331	1687.0271	-1581.6788	-1170.4961	1648.051	-1581.386	-1271.0237	1698.9839	1098.0441	-1271.6296	1660.0062	1099.2146	952.76917	1705.7571	1186.9594	972.68878	1733.9368	1168.7904	1026.571	1669.2491	-1551.4796	1028.137	1630.2831	-1551.9244	-199.59761	1171.2523	-184.62361	-200.14752	1132.2576	-184.29253
1178	9.8083333	-1038.1921	214.52463	-1644.0764	-1109.3975	204.26289	-1599.4149	-1063.5801	172.983	-1625.8615	-1054.1519	262.24615	-1634.859	-1352.7189	235.13948	1003.7674	-1281.3792	227.41847	1052.4318	-1322.6497	193.92506	1021.0013	-1284.4618	287.93658	1052.8508	814.07343	187.47928	1209.4836	892.21918	178.44218	1179.2651	844.46637	145.58603	1198.2664	861.21375	292.75433	1167.1471	1115.7705	209.68388	-1401.5686	1056.2612	194.10884	-1460.2211	1095.2114	162.54074	-1423.8059	1069.7766	238.85002	-1425.7482	-1204.6396	1686.0511	-1563.0236	-1129.1438	1688.2848	-1605.9335	-1173.1068	1724.3599	-1581.9545	-1134.0238	1581.0183	-1603.7928	-1239.5525	1699.1031	1119.4761	-1309.23	1698.7032	1071.9066	-1270.4009	1736.3167	1096.9039	-1244.9496	1593.6647	1106.4386	988.97266	1664.2911	1162.2485	957.31531	1700.4777	1183.78	922.0083	1662.3003	1214.9446	939.88434	1659.4645	1159.9065	999.13629	1668.4635	-1579.364	1058.9155	1670.1608	-1518.5708	1025.0054	1708.0402	-1551.0415	1059.3053	1672.1487	-1585.3376	-201.67558	1171.5854	-147.19553	-196.98831	1170.8263	-231.22307	-199.13756	1208.5874	-184.94392	-166.81964	1170.8956	-182.50897	-247.61057	1172.568	-186.62344																																														-1068.4568	210.16304	-1625.0939	-1073.5277	248.82372	-1624.2957	-1321.382	231.74791	1025.1438	-1320.0831	270.4946	1029.3873	848.1048	183.54373	1196.3239	851.82123	222.31552	1194.3396	1088.8993	202.65103	-1428.0527	1082.8694	240.96788	-1432.1099	-1171.8385	1687.0215	-1581.6667	-1170.5146	1648.045	-1581.3666	-1270.9585	1698.9229	1098.0349	-1271.5397	1659.9451	1099.2137	952.66998	1705.7876	1186.9396	972.55713	1733.9934	1168.7755	1026.554	1669.2418	-1551.4811	1028.1094	1630.2754	-1551.9227	-199.58728	1171.2471	-184.6317	-200.05698	1132.2513	-184.30565
1179	9.8166667	-1038.1917	214.51941	-1644.0586	-1109.4078	204.20137	-1599.377	-1063.5875	172.92738	-1625.8524	-1054.1483	262.20227	-1634.8357	-1352.7069	235.11938	1003.667	-1281.3916	227.3708	1052.4403	-1322.707	193.85985	1021.04	-1284.4384	287.89029	1052.8301	814.02277	187.53714	1209.4296	892.21539	178.46652	1179.2623	844.54028	145.52429	1198.3263	861.3009	292.362	1167.8136	1115.8093	209.94328	-1401.7145	1056.2618	194.13301	-1460.2408	1095.1924	162.55287	-1423.8011	1069.7847	238.83228	-1425.7324	-1204.6398	1686.0643	-1563.0002	-1129.1368	1688.318	-1605.9713	-1173.1105	1724.3706	-1581.9749	-1134.0278	1581.0277	-1603.799	-1239.5713	1699.1401	1119.4869	-1309.1753	1698.6171	1071.8776	-1270.4169	1736.3492	1096.9166	-1244.9368	1593.6708	1106.7313	988.95825	1664.2816	1162.228	957.33215	1700.5129	1183.7593	921.96234	1662.3115	1214.8413	939.85602	1659.421	1159.9943	999.16882	1668.4126	-1579.2994	1058.9148	1670.1611	-1518.572	1025.0164	1708.0526	-1551.0461	1059.297	1672.1384	-1585.3391	-201.67542	1171.5924	-147.19788	-196.99287	1170.8159	-231.23041	-199.12721	1208.584	-184.93799	-166.66341	1171.0251	-182.57141	-247.59888	1172.5801	-186.63792																																														-1068.4784	210.13136	-1625.0564	-1073.5603	248.78998	-1624.2291	-1321.3698	231.71454	1025.0986	-1320.0009	270.46838	1029.2537	848.15741	183.57739	1196.2601	851.84259	222.34578	1194.1552	1088.8475	202.78473	-1428.2139	1082.8074	241.08449	-1432.4146	-1171.826	1687.0438	-1581.6755	-1170.4847	1648.0681	-1581.3629	-1270.9109	1698.9047	1098.0504	-1271.4253	1659.9258	1099.2307	952.73297	1705.7816	1186.8904	972.68488	1733.9678	1168.7668	1026.5658	1669.2142	-1551.4523	1028.1204	1630.2473	-1551.8597	-199.59019	1171.2466	-184.61882	-200.07375	1132.251	-184.28549
1180	9.825	-1038.1896	214.59151	-1644.1055	-1109.4019	204.16673	-1599.3309	-1063.6184	172.90767	-1625.8218	-1054.1349	262.21811	-1634.8484	-1352.7512	235.13361	1003.7383	-1281.4064	227.28152	1052.4337	-1322.7096	193.79459	1021.1028	-1284.4451	287.92142	1052.8334	814.05261	187.68405	1209.4868	892.16382	178.40929	1179.3431	844.50812	145.48611	1198.3088	861.14648	292.38074	1167.4005	1115.7721	209.68341	-1401.573	1056.2775	194.1678	-1460.2147	1095.2212	162.59911	-1423.7983	1069.801	238.85339	-1425.7744	-1204.626	1686.0724	-1563.0016	-1129.1272	1688.3315	-1605.973	-1173.1072	1724.3549	-1581.9608	-1134.0276	1581.037	-1603.8147	-1239.5752	1699.1492	1119.5024	-1309.2408	1698.7189	1071.9165	-1270.4036	1736.319	1096.9009	-1244.9695	1593.6091	1106.6022	988.91925	1664.2559	1162.2609	957.33514	1700.5177	1183.8131	922.03534	1662.2457	1214.9008	939.85242	1659.4452	1159.949	999.13794	1668.4431	-1579.3521	1058.9006	1670.1418	-1518.5635	1025.0118	1708.0443	-1551.0426	1059.3069	1672.1478	-1585.3433	-201.67786	1171.5825	-147.20467	-196.99397	1170.8225	-231.22484	-199.06827	1208.4757	-184.94519	-166.65808	1171.0233	-182.57127	-247.60129	1172.5625	-186.64268																																														-1068.5594	210.14563	-1625.0103	-1073.6881	248.79776	-1624.1681	-1321.3274	231.67514	1025.1862	-1319.9137	270.42502	1029.3633	848.25623	183.62277	1196.2872	852.06561	222.38188	1194.2329	1088.9343	202.68439	-1428.026	1082.9242	241.00595	-1432.0676	-1171.8257	1687.0538	-1581.6704	-1170.4866	1648.078	-1581.3671	-1270.9652	1698.9552	1098.0609	-1271.5513	1659.9784	1099.2711	952.81854	1705.703	1186.895	972.771	1733.8704	1168.7428	1026.5497	1669.2222	-1551.4696	1028.0934	1630.2551	-1551.8982	-199.59108	1171.2439	-184.6375	-200.13867	1132.249	-184.31523
